<svg xmlns="http://www.w3.org/2000/svg" xmlns:xlink="http://www.w3.org/1999/xlink" width="90" zoomAndPan="magnify" viewBox="0 0 67.5 67.499996" height="90" preserveAspectRatio="xMidYMid meet" version="1.0"><defs><clipPath id="e39d073f60"><path d="M 0 0 L 67.003906 0 L 67.003906 67.003906 L 0 67.003906 Z M 0 0 " clip-rule="nonzero"/></clipPath><clipPath id="922e22b50e"><path d="M 28 13.695312 L 41 13.695312 L 41 20 L 28 20 Z M 28 13.695312 " clip-rule="nonzero"/></clipPath><clipPath id="a273bd33fc"><path d="M 20 50 L 47 50 L 47 53.445312 L 20 53.445312 Z M 20 50 " clip-rule="nonzero"/></clipPath><clipPath id="19d0a87f61"><path d="M 19.109375 39 L 48.359375 39 L 48.359375 52 L 19.109375 52 Z M 19.109375 39 " clip-rule="nonzero"/></clipPath></defs><g clip-path="url(#e39d073f60)"><path fill="#ffffff" d="M 0 0 L 67.5 0 L 67.5 75 L 0 75 Z M 0 0 " fill-opacity="1" fill-rule="nonzero"/><path fill="#ffffff" d="M 0 0 L 67.5 0 L 67.5 67.5 L 0 67.5 Z M 0 0 " fill-opacity="1" fill-rule="nonzero"/><path fill="#f64a00" d="M 0 0 L 67.5 0 L 67.5 67.5 L 0 67.5 Z M 0 0 " fill-opacity="1" fill-rule="nonzero"/></g><path fill="#ffffff" d="M 33.738281 37.855469 C 33.507812 37.855469 33.320312 37.671875 33.320312 37.441406 L 33.320312 34.765625 C 33.320312 34.539062 33.507812 34.351562 33.738281 34.351562 C 33.96875 34.351562 34.152344 34.539062 34.152344 34.765625 L 34.152344 37.441406 C 34.152344 37.671875 33.96875 37.855469 33.738281 37.855469 " fill-opacity="1" fill-rule="nonzero"/><path fill="#ffffff" d="M 30.289062 38.710938 C 30.128906 38.710938 29.972656 38.617188 29.90625 38.457031 L 28.664062 35.542969 C 28.578125 35.335938 28.675781 35.089844 28.886719 35.003906 C 29.101562 34.914062 29.34375 35.011719 29.433594 35.222656 L 30.671875 38.136719 C 30.761719 38.347656 30.664062 38.589844 30.449219 38.675781 C 30.398438 38.699219 30.34375 38.710938 30.289062 38.710938 " fill-opacity="1" fill-rule="nonzero"/><path fill="#ffffff" d="M 37.433594 38.710938 C 37.386719 38.710938 37.335938 38.703125 37.289062 38.683594 C 37.074219 38.609375 36.960938 38.371094 37.039062 38.15625 L 38.027344 35.46875 C 38.105469 35.253906 38.34375 35.140625 38.5625 35.21875 C 38.777344 35.296875 38.886719 35.535156 38.808594 35.75 L 37.820312 38.4375 C 37.761719 38.605469 37.601562 38.710938 37.433594 38.710938 " fill-opacity="1" fill-rule="nonzero"/><path fill="#ffffff" d="M 45.300781 38.484375 C 45.097656 38.484375 44.917969 38.332031 44.890625 38.121094 L 44.824219 37.625 C 44.625 36.65625 44.09375 35.777344 43.324219 35.144531 C 42.835938 34.746094 42.351562 34.492188 41.886719 34.390625 L 37.703125 33.1875 C 37.570312 33.148438 37.445312 33.089844 37.332031 33.015625 C 37.011719 32.800781 36.804688 32.460938 36.757812 32.078125 L 36.566406 30.445312 C 36.546875 30.300781 36.609375 30.160156 36.722656 30.074219 C 37.8125 29.234375 38.628906 27.960938 39.015625 26.488281 C 39.0625 26.320312 39.207031 26.199219 39.382812 26.183594 C 39.90625 26.136719 40.316406 25.476562 40.316406 24.675781 C 40.316406 23.929688 39.96875 23.300781 39.484375 23.183594 C 39.261719 23.128906 39.125 22.902344 39.183594 22.683594 C 39.238281 22.460938 39.464844 22.328125 39.6875 22.382812 C 40.546875 22.597656 41.148438 23.539062 41.148438 24.675781 C 41.148438 25.789062 40.566406 26.707031 39.75 26.949219 C 39.316406 28.40625 38.5 29.679688 37.417969 30.574219 L 37.585938 31.984375 C 37.601562 32.125 37.679688 32.25 37.796875 32.332031 C 37.839844 32.359375 37.886719 32.378906 37.933594 32.394531 L 42.09375 33.59375 C 42.660156 33.714844 43.261719 34.027344 43.855469 34.507812 C 44.777344 35.261719 45.410156 36.316406 45.644531 37.476562 C 45.648438 37.488281 45.648438 37.496094 45.648438 37.503906 L 45.714844 38.019531 C 45.742188 38.246094 45.582031 38.449219 45.355469 38.480469 C 45.339844 38.480469 45.320312 38.484375 45.300781 38.484375 " fill-opacity="1" fill-rule="nonzero"/><path fill="#ffffff" d="M 22.167969 38.484375 C 22.148438 38.484375 22.132812 38.480469 22.113281 38.480469 C 21.886719 38.449219 21.726562 38.246094 21.753906 38.019531 L 21.820312 37.503906 C 21.820312 37.496094 21.820312 37.488281 21.824219 37.476562 C 22.054688 36.320312 22.691406 35.265625 23.613281 34.511719 C 24.203125 34.027344 24.8125 33.710938 25.414062 33.582031 L 29.535156 32.394531 C 29.582031 32.378906 29.628906 32.359375 29.671875 32.332031 C 29.789062 32.25 29.867188 32.125 29.882812 31.984375 L 30.046875 30.574219 C 28.96875 29.679688 28.152344 28.40625 27.714844 26.949219 C 26.902344 26.703125 26.320312 25.785156 26.320312 24.675781 C 26.320312 23.570312 26.902344 22.628906 27.734375 22.394531 C 27.953125 22.332031 28.183594 22.460938 28.246094 22.679688 C 28.308594 22.898438 28.183594 23.125 27.960938 23.191406 C 27.492188 23.324219 27.152344 23.945312 27.152344 24.675781 C 27.152344 25.472656 27.5625 26.136719 28.082031 26.183594 C 28.257812 26.199219 28.402344 26.320312 28.449219 26.488281 C 28.839844 27.957031 29.652344 29.230469 30.742188 30.074219 C 30.859375 30.160156 30.917969 30.300781 30.898438 30.445312 L 30.710938 32.078125 C 30.664062 32.457031 30.457031 32.800781 30.136719 33.015625 C 30.023438 33.089844 29.898438 33.148438 29.765625 33.1875 L 25.621094 34.378906 C 25.121094 34.488281 24.632812 34.746094 24.144531 35.148438 C 23.371094 35.777344 22.839844 36.65625 22.640625 37.625 L 22.578125 38.121094 C 22.550781 38.332031 22.371094 38.484375 22.167969 38.484375 " fill-opacity="1" fill-rule="nonzero"/><path fill="#ffffff" d="M 27.847656 23.203125 C 27.632812 23.203125 27.449219 23.039062 27.433594 22.820312 C 27.425781 22.722656 27.273438 20.382812 28.21875 19.007812 C 28.347656 18.816406 28.609375 18.769531 28.796875 18.898438 C 28.988281 19.027344 29.035156 19.285156 28.90625 19.472656 C 28.121094 20.613281 28.261719 22.742188 28.261719 22.765625 C 28.277344 22.992188 28.105469 23.1875 27.875 23.203125 C 27.867188 23.203125 27.859375 23.203125 27.847656 23.203125 " fill-opacity="1" fill-rule="nonzero"/><path fill="#ffffff" d="M 39.585938 23.195312 C 39.578125 23.195312 39.570312 23.195312 39.566406 23.195312 C 39.335938 23.183594 39.160156 22.988281 39.171875 22.761719 C 39.171875 22.75 39.226562 21.507812 38.8125 20.128906 C 38.746094 19.910156 38.871094 19.679688 39.089844 19.617188 C 39.3125 19.550781 39.542969 19.675781 39.609375 19.894531 C 40.066406 21.410156 40.003906 22.746094 40 22.800781 C 39.992188 23.023438 39.804688 23.195312 39.585938 23.195312 " fill-opacity="1" fill-rule="nonzero"/><g clip-path="url(#922e22b50e)"><path fill="#ffffff" d="M 36.945312 19.707031 C 36.6875 19.707031 36.4375 19.683594 36.222656 19.65625 C 35.613281 19.574219 35.015625 19.433594 34.433594 19.296875 C 34.070312 19.210938 33.695312 19.125 33.324219 19.054688 C 32.207031 18.839844 31.347656 18.84375 30.617188 19.066406 C 30.398438 19.132812 30.164062 19.011719 30.097656 18.792969 C 30.027344 18.574219 30.152344 18.34375 30.371094 18.277344 C 31.238281 18.011719 32.226562 18.003906 33.484375 18.242188 C 33.867188 18.316406 34.253906 18.40625 34.625 18.496094 C 35.210938 18.632812 35.765625 18.761719 36.332031 18.835938 C 36.703125 18.886719 37.179688 18.925781 37.605469 18.796875 C 38.15625 18.628906 38.65625 18.152344 38.9375 17.515625 C 39.144531 17.054688 39.179688 16.046875 39.179688 15.324219 C 38.148438 15.652344 37.199219 15.671875 36.160156 15.394531 C 36.042969 15.363281 35.949219 15.285156 35.894531 15.179688 C 35.839844 15.074219 35.835938 14.949219 35.882812 14.839844 C 35.898438 14.800781 35.910156 14.761719 35.914062 14.71875 C 34.832031 15.070312 33.527344 15.238281 32.996094 15.304688 L 32.894531 15.320312 C 31.023438 15.5625 29 16.894531 28.980469 19.242188 C 28.976562 19.46875 28.789062 19.652344 28.5625 19.652344 C 28.5625 19.652344 28.5625 19.652344 28.558594 19.652344 C 28.328125 19.648438 28.144531 19.464844 28.148438 19.238281 C 28.171875 16.394531 30.570312 14.789062 32.785156 14.5 L 32.890625 14.484375 C 33.464844 14.414062 34.992188 14.214844 36.03125 13.800781 C 36.21875 13.722656 36.429688 13.792969 36.539062 13.960938 C 36.679688 14.183594 36.75 14.433594 36.75 14.683594 C 37.648438 14.855469 38.472656 14.75 39.429688 14.351562 C 39.554688 14.300781 39.703125 14.3125 39.816406 14.386719 C 39.933594 14.460938 40.003906 14.589844 40.007812 14.726562 C 40.023438 15.886719 40.003906 17.164062 39.699219 17.847656 C 39.316406 18.714844 38.640625 19.347656 37.847656 19.585938 C 37.542969 19.675781 37.238281 19.707031 36.945312 19.707031 " fill-opacity="1" fill-rule="nonzero"/></g><g clip-path="url(#a273bd33fc)"><path fill="#ffffff" d="M 21.382812 52.582031 L 46.085938 52.582031 C 45.898438 51.765625 45.160156 51.15625 44.28125 51.15625 L 23.1875 51.15625 C 22.308594 51.15625 21.570312 51.765625 21.382812 52.582031 Z M 46.550781 53.410156 L 20.917969 53.410156 C 20.6875 53.410156 20.5 53.226562 20.5 52.996094 C 20.5 51.527344 21.707031 50.332031 23.1875 50.332031 L 44.28125 50.332031 C 45.761719 50.332031 46.96875 51.527344 46.96875 52.996094 C 46.96875 53.226562 46.78125 53.410156 46.550781 53.410156 " fill-opacity="1" fill-rule="nonzero"/></g><g clip-path="url(#19d0a87f61)"><path fill="#ffffff" d="M 22.386719 51.15625 C 22.207031 51.15625 22.042969 51.039062 21.988281 50.859375 L 19.277344 41.824219 C 19.101562 41.226562 19.214844 40.597656 19.589844 40.09375 C 19.964844 39.597656 20.542969 39.308594 21.171875 39.308594 L 46.296875 39.308594 C 46.925781 39.308594 47.503906 39.597656 47.878906 40.09375 C 48.253906 40.597656 48.367188 41.226562 48.191406 41.824219 L 45.480469 50.859375 C 45.417969 51.082031 45.183594 51.203125 44.964844 51.140625 C 44.742188 51.074219 44.617188 50.84375 44.683594 50.625 L 47.390625 41.589844 C 47.496094 41.242188 47.429688 40.878906 47.210938 40.589844 C 46.992188 40.300781 46.660156 40.132812 46.296875 40.132812 L 21.171875 40.132812 C 20.808594 40.132812 20.472656 40.300781 20.257812 40.589844 C 20.039062 40.878906 19.972656 41.242188 20.078125 41.589844 L 22.785156 50.625 C 22.851562 50.84375 22.726562 51.074219 22.503906 51.140625 C 22.464844 51.148438 22.425781 51.15625 22.386719 51.15625 " fill-opacity="1" fill-rule="nonzero"/></g><path fill="#ffffff" d="M 33.734375 32.203125 C 33.230469 32.203125 32.730469 32.078125 32.269531 31.832031 L 30.289062 30.761719 C 30.085938 30.652344 30.011719 30.402344 30.121094 30.199219 C 30.230469 30 30.484375 29.925781 30.6875 30.035156 L 32.667969 31.105469 C 33.335938 31.46875 34.136719 31.46875 34.804688 31.105469 L 36.78125 30.035156 C 36.984375 29.925781 37.234375 30 37.34375 30.199219 C 37.453125 30.402344 37.378906 30.652344 37.179688 30.761719 L 35.203125 31.828125 C 34.746094 32.078125 34.238281 32.203125 33.734375 32.203125 " fill-opacity="1" fill-rule="nonzero"/></svg>